<?xml version="1.0" standalone="no"?>
<!DOCTYPE svg PUBLIC "-//W3C//DTD SVG 20010904//EN"
 "http://www.w3.org/TR/2001/REC-SVG-20010904/DTD/svg10.dtd">
<svg version="1.0" xmlns="http://www.w3.org/2000/svg"
 width="770.000000pt" height="512.000000pt" viewBox="0 0 770.000000 512.000000"
 preserveAspectRatio="xMidYMid meet">

<g transform="translate(0.000000,512.000000) scale(0.100000,-0.100000)"
fill="#000000" stroke="none">
<path d="M3635 4770 c-306 -35 -545 -104 -799 -233 -216 -109 -380 -228 -559
-405 -606 -598 -816 -1464 -554 -2282 76 -235 235 -522 397 -714 83 -99 242
-257 330 -327 678 -542 1623 -640 2393 -247 278 142 534 348 735 594 177 216
330 515 412 809 78 278 98 635 51 925 -51 321 -168 622 -341 884 -166 250
-388 473 -632 634 -270 177 -572 295 -883 343 -149 23 -429 32 -550 19z m495
-290 c410 -59 791 -251 1090 -550 548 -547 717 -1366 433 -2094 -193 -496
-593 -896 -1098 -1100 -108 -44 -173 -48 -205 -14 -11 13 -23 32 -25 43 -3 11
-6 173 -8 360 -3 383 -8 413 -82 516 -20 28 -35 52 -33 54 2 1 48 10 103 19
316 52 530 179 651 385 97 166 150 439 124 646 -19 151 -73 284 -162 396 l-28
35 16 64 c22 88 16 257 -15 368 l-23 82 -52 0 c-99 0 -258 -60 -410 -155 l-72
-44 -54 14 c-106 29 -314 55 -440 55 -125 0 -334 -26 -438 -54 l-53 -14 -67
40 c-159 97 -321 158 -418 158 -58 0 -51 10 -84 -120 -24 -93 -26 -251 -5
-335 l16 -58 -29 -36 c-153 -193 -202 -441 -146 -741 42 -227 152 -412 306
-518 126 -86 322 -155 506 -177 28 -4 52 -9 52 -12 0 -2 -11 -19 -25 -37 -30
-40 -71 -131 -81 -180 -8 -44 -28 -59 -110 -80 -179 -46 -340 8 -440 148 -94
132 -110 150 -160 183 -63 42 -152 67 -205 58 -78 -13 -68 -46 38 -125 82 -60
126 -118 189 -249 73 -151 135 -214 256 -262 78 -31 91 -33 208 -33 69 -1 144
2 168 7 l42 7 0 -186 0 -186 -29 -29 c-41 -41 -92 -39 -206 7 -387 156 -689
404 -920 754 -488 741 -397 1754 214 2395 265 277 541 445 906 549 228 65 546
84 805 46z"/>
</g>
</svg>
